<?xml version="1.0" standalone="no"?>
<!DOCTYPE svg PUBLIC "-//W3C//DTD SVG 20010904//EN"
 "http://www.w3.org/TR/2001/REC-SVG-20010904/DTD/svg10.dtd">
<svg version="1.0" xmlns="http://www.w3.org/2000/svg"
 width="557.000000pt" height="619.000000pt" viewBox="0 0 557.000000 619.000000"
 preserveAspectRatio="xMidYMid meet">

<g transform="translate(0.000000,619.000000) scale(0.100000,-0.100000)"
fill="#000000" stroke="none">
<path d="M2389 6179 c-630 -45 -1210 -314 -1650 -765 -132 -136 -210 -232
-302 -371 -211 -319 -344 -664 -404 -1053 -25 -162 -25 -567 0 -730 87 -563
326 -1040 720 -1439 411 -416 926 -667 1522 -742 145 -18 473 -16 624 5 649
88 1224 406 1643 906 158 189 320 462 411 695 58 149 59 149 -34 60 -314 -299
-717 -488 -1164 -545 -122 -16 -408 -13 -532 5 -352 51 -676 186 -956 397
-114 85 -304 274 -391 388 -76 98 -136 190 -136 207 0 15 192 126 330 192 216
102 467 179 710 216 144 23 476 31 626 16 788 -80 1478 -501 1911 -1166 69
-107 187 -331 214 -407 26 -74 32 -41 26 140 -6 187 -22 305 -62 463 -148 583
-551 1078 -1090 1339 -938 455 -2053 149 -2630 -722 -21 -32 -41 -58 -45 -58
-12 0 -96 171 -144 290 -92 234 -137 475 -137 744 1 222 12 320 63 521 106
418 341 787 683 1073 150 126 345 244 523 317 l54 22 -93 6 c-104 8 -139 7
-290 -4z"/>
<path d="M1267 650 c-183 -46 -285 -231 -229 -417 39 -127 130 -198 286 -223
73 -12 129 -7 214 16 l52 15 0 124 c0 117 1 125 22 139 21 15 18 16 -57 15
-58 0 -74 -3 -57 -9 21 -9 22 -14 22 -129 0 -142 -1 -143 -115 -143 -121 0
-218 56 -273 160 -76 143 -40 315 81 386 131 77 304 42 363 -74 l23 -45 1 73
c0 68 -1 72 -23 72 -12 0 -50 10 -82 21 -68 24 -172 33 -228 19z"/>
<path d="M471 633 c-67 -24 -153 -113 -181 -188 -55 -150 10 -337 141 -405 89
-46 219 -46 316 1 133 64 204 250 157 409 -22 74 -107 159 -183 183 -66 21
-190 21 -250 0z m193 -15 c64 -19 141 -101 162 -174 34 -116 16 -255 -43 -332
-32 -42 -114 -82 -169 -82 -196 0 -319 216 -252 442 15 52 89 129 138 145 48
15 114 15 164 1z"/>
<path d="M3564 636 c-65 -29 -96 -104 -75 -179 10 -33 34 -63 111 -137 110
-107 120 -122 120 -179 0 -86 -93 -135 -183 -97 -28 11 -42 26 -57 58 l-19 43
0 -58 c-1 -54 1 -58 27 -69 47 -19 153 -15 197 8 73 38 108 120 85 203 -12 44
-52 89 -168 189 -68 59 -84 98 -62 153 35 83 196 72 213 -15 2 -11 5 2 6 30 1
46 -2 52 -21 58 -40 10 -142 6 -174 -8z"/>
<path d="M4006 629 c-3 -13 -19 -150 -35 -304 -25 -232 -33 -282 -47 -292 -15
-11 -8 -13 47 -12 51 0 59 2 40 10 -23 9 -24 12 -18 77 4 37 12 136 19 220 6
83 14 152 18 152 3 0 55 -88 116 -196 61 -108 114 -196 119 -196 4 0 58 91
119 201 64 118 113 196 117 189 3 -7 14 -106 24 -220 15 -170 16 -210 5 -222
-11 -14 -3 -16 71 -15 46 1 74 4 61 6 -45 9 -52 39 -85 338 -17 157 -34 285
-38 285 -3 0 -62 -106 -130 -235 -68 -129 -128 -230 -132 -226 -4 4 -62 107
-128 227 -66 120 -124 223 -129 228 -5 5 -11 -1 -14 -15z"/>
<path d="M1755 633 c43 -11 45 -18 45 -203 0 -256 18 -328 96 -382 119 -84
305 -43 366 80 21 44 23 61 26 247 1 110 5 210 8 223 2 13 15 27 27 32 15 6
-4 9 -63 8 -47 0 -76 -3 -65 -5 44 -11 45 -16 45 -233 0 -213 -5 -249 -43
-304 -25 -35 -89 -65 -140 -66 -85 0 -157 61 -176 150 -6 28 -11 133 -11 234
0 185 4 206 40 219 8 3 -28 5 -80 5 -52 0 -86 -3 -75 -5z"/>
<path d="M2485 631 c26 -5 31 -11 37 -51 9 -60 9 -377 -1 -468 -4 -47 -12 -77
-21 -82 -10 -7 10 -10 60 -10 70 0 73 1 52 16 -21 14 -22 23 -22 130 l0 114
59 0 59 0 86 -115 c47 -63 99 -121 115 -130 17 -8 54 -15 83 -15 l53 0 -40 19
c-38 17 -97 77 -186 191 -54 68 -53 67 -13 102 45 40 64 82 64 146 0 63 -30
109 -90 140 -40 20 -58 22 -185 21 -77 -1 -126 -4 -110 -8z m233 -25 c55 -29
76 -62 80 -130 8 -116 -42 -171 -148 -164 l-55 3 -3 140 c-1 76 0 145 2 152 7
18 90 17 124 -1z"/>
<path d="M3150 631 c37 -10 42 -56 38 -335 -4 -230 -5 -249 -23 -262 -17 -12
-10 -14 55 -14 66 0 72 1 54 14 -18 13 -19 31 -22 277 -2 144 -1 273 3 286 3
13 16 28 28 33 15 6 -6 9 -68 8 -51 0 -79 -3 -65 -7z"/>
</g>
</svg>
